<svg width="846" height="190" viewBox="0 0 846 190" fill="none" xmlns="http://www.w3.org/2000/svg">
<path d="M16.6667 53.3333C16.6667 57.9357 12.9357 61.6667 8.33334 61.6667C3.73096 61.6667 0 57.9357 0 53.3333C0 48.731 3.73096 45 8.33334 45C12.9357 45 16.6667 48.731 16.6667 53.3333Z" fill="#0E22FC"/>
<path d="M50 53.3333C50 57.9357 46.269 61.6667 41.6666 61.6667C37.0642 61.6667 33.3333 57.9357 33.3333 53.3333C33.3333 48.731 37.0642 45 41.6666 45C46.269 45 50 48.731 50 53.3333Z" fill="#0E22FC"/>
<path d="M83.3335 53.3333C83.3335 57.9357 79.6025 61.6667 75.0001 61.6667C70.3977 61.6667 66.6668 57.9357 66.6668 53.3333C66.6668 48.731 70.3977 45 75.0001 45C79.6025 45 83.3335 48.731 83.3335 53.3333Z" fill="#0E22FC"/>
<path d="M16.6667 120C16.6667 124.602 12.9357 128.333 8.33334 128.333C3.73096 128.333 0 124.602 0 120C0 115.398 3.73096 111.667 8.33334 111.667C12.9357 111.667 16.6667 115.398 16.6667 120Z" fill="#0E22FC"/>
<path d="M50 120C50 124.602 46.269 128.333 41.6666 128.333C37.0642 128.333 33.3333 124.602 33.3333 120C33.3333 115.398 37.0642 111.667 41.6666 111.667C46.269 111.667 50 115.398 50 120Z" fill="#0E22FC"/>
<path d="M83.3335 120C83.3335 124.602 79.6025 128.333 75.0001 128.333C70.3977 128.333 66.6668 124.602 66.6668 120C66.6668 115.398 70.3977 111.667 75.0001 111.667C79.6025 111.667 83.3335 115.398 83.3335 120Z" fill="#0E22FC"/>
<path d="M33.3334 70C33.3334 74.6023 29.6025 78.3333 25.0001 78.3333C20.3977 78.3333 16.6668 74.6023 16.6668 70C16.6668 65.3976 20.3977 61.6666 25.0001 61.6666C29.6025 61.6666 33.3334 65.3976 33.3334 70Z" fill="#0E22FC"/>
<path d="M66.6667 70C66.6667 74.6023 62.9358 78.3333 58.3334 78.3333C53.731 78.3333 50 74.6023 50 70C50 65.3976 53.731 61.6666 58.3334 61.6666C62.9358 61.6666 66.6667 65.3976 66.6667 70Z" fill="#0E22FC"/>
<path d="M100 70C100 74.6023 96.269 78.3333 91.6667 78.3333C87.0643 78.3333 83.3333 74.6023 83.3333 70C83.3333 65.3976 87.0643 61.6666 91.6667 61.6666C96.269 61.6666 100 65.3976 100 70Z" fill="#0E22FC"/>
<path d="M33.3334 136.667C33.3334 141.269 29.6025 145 25.0001 145C20.3977 145 16.6668 141.269 16.6668 136.667C16.6668 132.064 20.3977 128.333 25.0001 128.333C29.6025 128.333 33.3334 132.064 33.3334 136.667Z" fill="#0E22FC"/>
<path d="M66.6667 136.667C66.6667 141.269 62.9358 145 58.3334 145C53.731 145 50 141.269 50 136.667C50 132.064 53.731 128.333 58.3334 128.333C62.9358 128.333 66.6667 132.064 66.6667 136.667Z" fill="#0E22FC"/>
<path d="M100 136.667C100 141.269 96.269 145 91.6667 145C87.0643 145 83.3333 141.269 83.3333 136.667C83.3333 132.064 87.0643 128.333 91.6667 128.333C96.269 128.333 100 132.064 100 136.667Z" fill="#0E22FC"/>
<path d="M16.6667 86.6667C16.6667 91.2691 12.9357 95 8.33334 95C3.73096 95 0 91.2691 0 86.6667C0 82.0643 3.73096 78.3334 8.33334 78.3334C12.9357 78.3334 16.6667 82.0643 16.6667 86.6667Z" fill="#0E22FC"/>
<path d="M50 86.6667C50 91.2691 46.269 95 41.6666 95C37.0642 95 33.3333 91.2691 33.3333 86.6667C33.3333 82.0643 37.0642 78.3334 41.6666 78.3334C46.269 78.3334 50 82.0643 50 86.6667Z" fill="#0E22FC"/>
<path d="M83.3335 86.6667C83.3335 91.2691 79.6025 95 75.0001 95C70.3977 95 66.6668 91.2691 66.6668 86.6667C66.6668 82.0643 70.3977 78.3334 75.0001 78.3334C79.6025 78.3334 83.3335 82.0643 83.3335 86.6667Z" fill="#0E22FC"/>
<path d="M33.3334 103.333C33.3334 107.936 29.6025 111.667 25.0001 111.667C20.3977 111.667 16.6668 107.936 16.6668 103.333C16.6668 98.7309 20.3977 95 25.0001 95C29.6025 95 33.3334 98.7309 33.3334 103.333Z" fill="#0E22FC"/>
<path d="M66.6667 103.333C66.6667 107.936 62.9358 111.667 58.3334 111.667C53.731 111.667 50 107.936 50 103.333C50 98.7309 53.731 95 58.3334 95C62.9358 95 66.6667 98.7309 66.6667 103.333Z" fill="#0E22FC"/>
<path d="M100 103.333C100 107.936 96.269 111.667 91.6667 111.667C87.0643 111.667 83.3333 107.936 83.3333 103.333C83.3333 98.7309 87.0643 95 91.6667 95C96.269 95 100 98.7309 100 103.333Z" fill="#0E22FC"/>
<path d="M146.144 89.216C146.144 77.6107 149.045 68.608 154.848 62.208C160.736 55.808 168.843 52.608 179.168 52.608C189.493 52.608 197.557 55.808 203.36 62.208C209.248 68.608 212.192 77.6107 212.192 89.216V109.184C212.192 121.131 209.248 130.219 203.36 136.448C197.557 142.677 189.493 145.792 179.168 145.792C168.843 145.792 160.736 142.677 154.848 136.448C149.045 130.219 146.144 121.131 146.144 109.184V89.216ZM179.168 130.432C182.24 130.432 184.8 129.963 186.848 129.024C188.896 128 190.56 126.592 191.84 124.8C193.12 123.008 194.016 120.875 194.528 118.4C195.04 115.925 195.296 113.195 195.296 110.208V88.192C195.296 85.376 194.997 82.7307 194.4 80.256C193.803 77.7813 192.864 75.648 191.584 73.856C190.304 72.064 188.64 70.656 186.592 69.632C184.544 68.5227 182.069 67.968 179.168 67.968C176.267 67.968 173.792 68.5227 171.744 69.632C169.696 70.656 168.032 72.064 166.752 73.856C165.472 75.648 164.533 77.7813 163.936 80.256C163.339 82.7307 163.04 85.376 163.04 88.192V110.208C163.04 113.195 163.296 115.925 163.808 118.4C164.32 120.875 165.216 123.008 166.496 124.8C167.776 126.592 169.44 128 171.488 129.024C173.536 129.963 176.096 130.432 179.168 130.432ZM241.159 169.6H225.031V80.512H241.159V89.728H243.463C245.17 86.2293 247.644 83.5413 250.887 81.664C254.13 79.7013 258.268 78.72 263.303 78.72C267.058 78.72 270.599 79.4453 273.927 80.896C277.34 82.3467 280.284 84.48 282.759 87.296C285.319 90.0267 287.324 93.3973 288.775 97.408C290.311 101.419 291.079 105.984 291.079 111.104V113.408C291.079 118.613 290.354 123.221 288.903 127.232C287.452 131.243 285.49 134.656 283.015 137.472C280.54 140.203 277.596 142.293 274.183 143.744C270.855 145.109 267.228 145.792 263.303 145.792C260.402 145.792 257.884 145.493 255.751 144.896C253.618 144.299 251.74 143.488 250.119 142.464C248.583 141.44 247.26 140.288 246.151 139.008C245.127 137.643 244.231 136.235 243.463 134.784H241.159V169.6ZM258.055 130.432C263.09 130.432 267.143 128.896 270.215 125.824C273.372 122.667 274.951 118.4 274.951 113.024V111.488C274.951 106.112 273.372 101.888 270.215 98.816C267.143 95.6587 263.09 94.08 258.055 94.08C253.02 94.08 248.924 95.7013 245.767 98.944C242.695 102.101 241.159 106.283 241.159 111.488V113.024C241.159 118.229 242.695 122.453 245.767 125.696C248.924 128.853 253.02 130.432 258.055 130.432ZM320.942 117.504C321.027 119.381 321.454 121.131 322.222 122.752C323.075 124.288 324.185 125.653 325.55 126.848C327.001 127.957 328.622 128.853 330.414 129.536C332.291 130.133 334.254 130.432 336.302 130.432C340.313 130.432 343.385 129.749 345.518 128.384C347.651 126.933 349.187 125.227 350.126 123.264L363.95 130.944C363.182 132.565 362.115 134.272 360.75 136.064C359.385 137.771 357.593 139.349 355.374 140.8C353.241 142.251 350.595 143.445 347.438 144.384C344.366 145.323 340.739 145.792 336.558 145.792C331.779 145.792 327.427 145.024 323.502 143.488C319.577 141.952 316.163 139.733 313.262 136.832C310.446 133.931 308.227 130.389 306.606 126.208C305.07 122.027 304.302 117.291 304.302 112V111.232C304.302 106.368 305.113 101.931 306.734 97.92C308.441 93.9093 310.745 90.496 313.646 87.68C316.547 84.864 319.918 82.688 323.758 81.152C327.683 79.5307 331.865 78.72 336.302 78.72C341.763 78.72 346.457 79.7013 350.382 81.664C354.307 83.5413 357.55 85.9733 360.11 88.96C362.67 91.8613 364.547 95.104 365.742 98.688C366.937 102.187 367.534 105.6 367.534 108.928V117.504H320.942ZM336.174 93.312C332.078 93.312 328.75 94.3787 326.19 96.512C323.63 98.56 321.966 100.949 321.198 103.68H351.15C350.638 100.693 349.017 98.2187 346.286 96.256C343.641 94.2933 340.27 93.312 336.174 93.312ZM401.237 144H385.109V80.512H401.237V89.984H403.541C404.992 86.4 407.338 83.6267 410.581 81.664C413.824 79.7013 417.621 78.72 421.973 78.72C425.045 78.72 427.904 79.232 430.549 80.256C433.28 81.1947 435.669 82.688 437.717 84.736C439.765 86.784 441.344 89.3867 442.453 92.544C443.648 95.7013 444.245 99.456 444.245 103.808V144H428.117V107.904C428.117 103.381 427.008 99.84 424.789 97.28C422.656 94.6347 419.541 93.312 415.445 93.312C410.666 93.312 407.082 94.9333 404.693 98.176C402.389 101.333 401.237 105.6 401.237 110.976V144ZM463.1 128.64H485.372V69.76H463.868V54.4H501.5V128.64H522.236V144H463.1V128.64ZM582.947 134.784C581.24 138.795 578.851 141.653 575.779 143.36C572.707 144.981 569.123 145.792 565.027 145.792C561.187 145.792 557.56 145.067 554.147 143.616C550.819 142.165 547.875 140.032 545.315 137.216C542.755 134.4 540.707 130.987 539.171 126.976C537.72 122.965 536.995 118.4 536.995 113.28V111.232C536.995 106.197 537.72 101.675 539.171 97.664C540.622 93.6533 542.584 90.24 545.059 87.424C547.534 84.608 550.392 82.4747 553.635 81.024C556.963 79.488 560.504 78.72 564.259 78.72C568.782 78.72 572.408 79.488 575.139 81.024C577.955 82.56 580.174 84.9493 581.795 88.192H584.099V80.512H600.227V124.8C600.227 127.36 601.379 128.64 603.683 128.64H606.115V144H595.107C592.206 144 589.816 143.147 587.939 141.44C586.147 139.733 585.251 137.515 585.251 134.784H582.947ZM568.611 130.432C573.304 130.432 577.059 128.896 579.875 125.824C582.691 122.667 584.099 118.4 584.099 113.024V111.488C584.099 106.112 582.691 101.888 579.875 98.816C577.059 95.6587 573.304 94.08 568.611 94.08C563.918 94.08 560.163 95.6587 557.347 98.816C554.531 101.888 553.123 106.112 553.123 111.488V113.024C553.123 118.4 554.531 122.667 557.347 125.824C560.163 128.896 563.918 130.432 568.611 130.432ZM663.242 80.512H679.37V159.616C679.37 162.517 678.431 164.907 676.554 166.784C674.762 168.661 672.415 169.6 669.514 169.6H631.754V154.24H659.786C662.09 154.24 663.242 152.96 663.242 150.4V134.784H660.938C658.122 142.123 652.063 145.792 642.762 145.792C639.605 145.792 636.661 145.28 633.93 144.256C631.199 143.232 628.81 141.653 626.762 139.52C624.714 137.387 623.093 134.741 621.898 131.584C620.789 128.341 620.234 124.544 620.234 120.192V80.512H636.362V116.864C636.362 121.387 637.429 124.928 639.562 127.488C641.695 129.963 644.895 131.2 649.162 131.2C654.026 131.2 657.567 129.664 659.786 126.592C662.09 123.435 663.242 119.168 663.242 113.792V80.512ZM712.817 117.504C712.902 119.381 713.329 121.131 714.097 122.752C714.95 124.288 716.06 125.653 717.425 126.848C718.876 127.957 720.497 128.853 722.289 129.536C724.166 130.133 726.129 130.432 728.177 130.432C732.188 130.432 735.26 129.749 737.393 128.384C739.526 126.933 741.062 125.227 742.001 123.264L755.825 130.944C755.057 132.565 753.99 134.272 752.625 136.064C751.26 137.771 749.468 139.349 747.249 140.8C745.116 142.251 742.47 143.445 739.313 144.384C736.241 145.323 732.614 145.792 728.433 145.792C723.654 145.792 719.302 145.024 715.377 143.488C711.452 141.952 708.038 139.733 705.137 136.832C702.321 133.931 700.102 130.389 698.481 126.208C696.945 122.027 696.177 117.291 696.177 112V111.232C696.177 106.368 696.988 101.931 698.609 97.92C700.316 93.9093 702.62 90.496 705.521 87.68C708.422 84.864 711.793 82.688 715.633 81.152C719.558 79.5307 723.74 78.72 728.177 78.72C733.638 78.72 738.332 79.7013 742.257 81.664C746.182 83.5413 749.425 85.9733 751.985 88.96C754.545 91.8613 756.422 95.104 757.617 98.688C758.812 102.187 759.409 105.6 759.409 108.928V117.504H712.817ZM728.049 93.312C723.953 93.312 720.625 94.3787 718.065 96.512C715.505 98.56 713.841 100.949 713.073 103.68H743.025C742.513 100.693 740.892 98.2187 738.161 96.256C735.516 94.2933 732.145 93.312 728.049 93.312ZM773.912 80.512H800.792V89.728H803.096C804.291 86.2293 806.296 83.5413 809.112 81.664C812.013 79.7013 815.469 78.72 819.48 78.72C825.795 78.72 830.872 80.7253 834.712 84.736C838.552 88.6613 840.472 94.6773 840.472 102.784V105.6L823.832 107.136V105.344C823.832 101.845 822.936 99.072 821.144 97.024C819.352 94.8907 816.664 93.824 813.08 93.824C809.496 93.824 806.68 95.0613 804.632 97.536C802.584 100.011 801.56 103.552 801.56 108.16V128.64H816.152V144H772.376V128.64H785.432V95.872H773.912V80.512Z" fill="#0E22FC"/>
</svg>
