<svg width="532" height="190" viewBox="0 0 532 190" fill="none" xmlns="http://www.w3.org/2000/svg">
<path d="M16.6667 53.3333C16.6667 57.9357 12.9357 61.6667 8.33334 61.6667C3.73096 61.6667 0 57.9357 0 53.3333C0 48.731 3.73096 45 8.33334 45C12.9357 45 16.6667 48.731 16.6667 53.3333Z" fill="#0E22FC"/>
<path d="M50 53.3333C50 57.9357 46.269 61.6667 41.6666 61.6667C37.0642 61.6667 33.3333 57.9357 33.3333 53.3333C33.3333 48.731 37.0642 45 41.6666 45C46.269 45 50 48.731 50 53.3333Z" fill="#0E22FC"/>
<path d="M83.3335 53.3333C83.3335 57.9357 79.6025 61.6667 75.0001 61.6667C70.3978 61.6667 66.6668 57.9357 66.6668 53.3333C66.6668 48.731 70.3978 45 75.0001 45C79.6025 45 83.3335 48.731 83.3335 53.3333Z" fill="#0E22FC"/>
<path d="M16.6667 120C16.6667 124.602 12.9357 128.333 8.33334 128.333C3.73096 128.333 0 124.602 0 120C0 115.398 3.73096 111.667 8.33334 111.667C12.9357 111.667 16.6667 115.398 16.6667 120Z" fill="#0E22FC"/>
<path d="M50 120C50 124.602 46.269 128.333 41.6666 128.333C37.0642 128.333 33.3333 124.602 33.3333 120C33.3333 115.398 37.0642 111.667 41.6666 111.667C46.269 111.667 50 115.398 50 120Z" fill="#0E22FC"/>
<path d="M83.3335 120C83.3335 124.602 79.6025 128.333 75.0001 128.333C70.3978 128.333 66.6668 124.602 66.6668 120C66.6668 115.398 70.3978 111.667 75.0001 111.667C79.6025 111.667 83.3335 115.398 83.3335 120Z" fill="#0E22FC"/>
<path d="M33.3334 70C33.3334 74.6023 29.6025 78.3333 25.0001 78.3333C20.3977 78.3333 16.6668 74.6023 16.6668 70C16.6668 65.3976 20.3977 61.6666 25.0001 61.6666C29.6025 61.6666 33.3334 65.3976 33.3334 70Z" fill="#0E22FC"/>
<path d="M66.6667 70C66.6667 74.6023 62.9358 78.3333 58.3334 78.3333C53.731 78.3333 50 74.6023 50 70C50 65.3976 53.731 61.6666 58.3334 61.6666C62.9358 61.6666 66.6667 65.3976 66.6667 70Z" fill="#0E22FC"/>
<path d="M100 70C100 74.6023 96.269 78.3333 91.6667 78.3333C87.0643 78.3333 83.3333 74.6023 83.3333 70C83.3333 65.3976 87.0643 61.6666 91.6667 61.6666C96.269 61.6666 100 65.3976 100 70Z" fill="#0E22FC"/>
<path d="M33.3334 136.667C33.3334 141.269 29.6025 145 25.0001 145C20.3977 145 16.6668 141.269 16.6668 136.667C16.6668 132.064 20.3977 128.333 25.0001 128.333C29.6025 128.333 33.3334 132.064 33.3334 136.667Z" fill="#0E22FC"/>
<path d="M66.6667 136.667C66.6667 141.269 62.9358 145 58.3334 145C53.731 145 50 141.269 50 136.667C50 132.064 53.731 128.333 58.3334 128.333C62.9358 128.333 66.6667 132.064 66.6667 136.667Z" fill="#0E22FC"/>
<path d="M100 136.667C100 141.269 96.269 145 91.6667 145C87.0643 145 83.3333 141.269 83.3333 136.667C83.3333 132.064 87.0643 128.333 91.6667 128.333C96.269 128.333 100 132.064 100 136.667Z" fill="#0E22FC"/>
<path d="M16.6667 86.6667C16.6667 91.2691 12.9357 95 8.33334 95C3.73096 95 0 91.2691 0 86.6667C0 82.0643 3.73096 78.3334 8.33334 78.3334C12.9357 78.3334 16.6667 82.0643 16.6667 86.6667Z" fill="#0E22FC"/>
<path d="M50 86.6667C50 91.2691 46.269 95 41.6666 95C37.0642 95 33.3333 91.2691 33.3333 86.6667C33.3333 82.0643 37.0642 78.3334 41.6666 78.3334C46.269 78.3334 50 82.0643 50 86.6667Z" fill="#0E22FC"/>
<path d="M83.3335 86.6667C83.3335 91.2691 79.6025 95 75.0001 95C70.3978 95 66.6668 91.2691 66.6668 86.6667C66.6668 82.0643 70.3978 78.3334 75.0001 78.3334C79.6025 78.3334 83.3335 82.0643 83.3335 86.6667Z" fill="#0E22FC"/>
<path d="M33.3334 103.333C33.3334 107.936 29.6025 111.667 25.0001 111.667C20.3977 111.667 16.6668 107.936 16.6668 103.333C16.6668 98.7309 20.3977 95 25.0001 95C29.6025 95 33.3334 98.7309 33.3334 103.333Z" fill="#0E22FC"/>
<path d="M66.6667 103.333C66.6667 107.936 62.9358 111.667 58.3334 111.667C53.731 111.667 50 107.936 50 103.333C50 98.7309 53.731 95 58.3334 95C62.9358 95 66.6667 98.7309 66.6667 103.333Z" fill="#0E22FC"/>
<path d="M100 103.333C100 107.936 96.269 111.667 91.6667 111.667C87.0643 111.667 83.3333 107.936 83.3333 103.333C83.3333 98.7309 87.0643 95 91.6667 95C96.269 95 100 98.7309 100 103.333Z" fill="#0E22FC"/>
<path d="M211.424 54.4V113.024C211.424 123.264 208.693 131.285 203.232 137.088C197.856 142.891 189.835 145.792 179.168 145.792C168.501 145.792 160.437 142.891 154.976 137.088C149.6 131.285 146.912 123.264 146.912 113.024V54.4H163.808V113.024C163.808 118.315 165.045 122.453 167.52 125.44C169.995 128.427 173.877 129.92 179.168 129.92C184.459 129.92 188.341 128.427 190.816 125.44C193.291 122.453 194.528 118.315 194.528 113.024V54.4H211.424ZM244.487 144H228.359V80.512H244.487V89.984H246.791C248.242 86.4 250.588 83.6267 253.831 81.664C257.074 79.7013 260.871 78.72 265.223 78.72C268.295 78.72 271.154 79.232 273.799 80.256C276.53 81.1947 278.919 82.688 280.967 84.736C283.015 86.784 284.594 89.3867 285.703 92.544C286.898 95.7013 287.495 99.456 287.495 103.808V144H271.367V107.904C271.367 103.381 270.258 99.84 268.039 97.28C265.906 94.6347 262.791 93.312 258.695 93.312C253.916 93.312 250.332 94.9333 247.943 98.176C245.639 101.333 244.487 105.6 244.487 110.976V144ZM320.174 144H304.046V54.4H320.174V89.728H322.478C324.185 86.2293 326.659 83.5413 329.902 81.664C333.145 79.7013 337.283 78.72 342.318 78.72C346.073 78.72 349.614 79.4453 352.942 80.896C356.355 82.3467 359.299 84.48 361.774 87.296C364.334 90.0267 366.339 93.3973 367.79 97.408C369.326 101.419 370.094 105.984 370.094 111.104V113.408C370.094 118.613 369.369 123.221 367.918 127.232C366.467 131.243 364.505 134.656 362.03 137.472C359.555 140.203 356.611 142.293 353.198 143.744C349.87 145.109 346.243 145.792 342.318 145.792C339.417 145.792 336.899 145.493 334.766 144.896C332.633 144.299 330.755 143.488 329.134 142.464C327.598 141.44 326.275 140.288 325.166 139.008C324.142 137.643 323.246 136.235 322.478 134.784H320.174V144ZM337.07 130.432C342.105 130.432 346.158 128.896 349.23 125.824C352.387 122.667 353.966 118.4 353.966 113.024V111.488C353.966 106.112 352.387 101.888 349.23 98.816C346.158 95.6587 342.105 94.08 337.07 94.08C332.035 94.08 327.939 95.7013 324.782 98.944C321.71 102.101 320.174 106.283 320.174 111.488V113.024C320.174 118.229 321.71 122.453 324.782 125.696C327.939 128.853 332.035 130.432 337.07 130.432ZM447.317 113.024C447.317 118.315 446.421 123.008 444.629 127.104C442.837 131.115 440.405 134.528 437.333 137.344C434.261 140.075 430.72 142.165 426.709 143.616C422.784 145.067 418.645 145.792 414.293 145.792C409.941 145.792 405.76 145.067 401.749 143.616C397.824 142.165 394.325 140.075 391.253 137.344C388.181 134.528 385.749 131.115 383.957 127.104C382.165 123.008 381.269 118.315 381.269 113.024V111.488C381.269 106.283 382.165 101.675 383.957 97.664C385.749 93.568 388.181 90.112 391.253 87.296C394.325 84.48 397.824 82.3467 401.749 80.896C405.76 79.4453 409.941 78.72 414.293 78.72C418.645 78.72 422.784 79.4453 426.709 80.896C430.72 82.3467 434.261 84.48 437.333 87.296C440.405 90.112 442.837 93.568 444.629 97.664C446.421 101.675 447.317 106.283 447.317 111.488V113.024ZM414.293 130.432C416.597 130.432 418.773 130.048 420.821 129.28C422.869 128.512 424.661 127.403 426.197 125.952C427.733 124.501 428.928 122.752 429.781 120.704C430.72 118.571 431.189 116.181 431.189 113.536V110.976C431.189 108.331 430.72 105.984 429.781 103.936C428.928 101.803 427.733 100.011 426.197 98.56C424.661 97.1093 422.869 96 420.821 95.232C418.773 94.464 416.597 94.08 414.293 94.08C411.989 94.08 409.813 94.464 407.765 95.232C405.717 96 403.925 97.1093 402.389 98.56C400.853 100.011 399.616 101.803 398.677 103.936C397.824 105.984 397.397 108.331 397.397 110.976V113.536C397.397 116.181 397.824 118.571 398.677 120.704C399.616 122.752 400.853 124.501 402.389 125.952C403.925 127.403 405.717 128.512 407.765 129.28C409.813 130.048 411.989 130.432 414.293 130.432ZM505.596 80.512H523.388L508.028 110.336V112.64L524.284 144H505.724L493.82 119.168H491.516L479.612 144H461.052L477.308 112.64V110.336L461.82 80.512H479.74L491.516 103.808H493.82L505.596 80.512Z" fill="#0E22FC"/>
</svg>
