<svg width="1607" height="262" viewBox="0 0 1607 262" fill="none" xmlns="http://www.w3.org/2000/svg">
<path d="M60.1704 0V60.1706H191.906C197.393 60.1706 201.853 64.6302 201.853 70.1173V201.853H262.023V89.1001L172.9 0H60.1704Z" fill="#FEFEFE"/>
<path d="M60.1705 191.883V60.1707H-7.62939e-05V121.112C-7.62939e-05 198.911 63.0658 262 140.888 262H201.829V201.829H70.0938C64.6068 201.829 60.1471 197.37 60.1471 191.883H60.1705Z" fill="#FEFEFE"/>
<path d="M1353.43 59.1435H1327.21L1300.57 134.304C1297.48 143.013 1293.33 155.365 1288.05 171.406L1279.48 145.582L1275.82 134.304L1249.32 59.1435H1222.53L1276.75 196.856V229.195H1231.69V254.552H1242.73C1275.12 254.552 1301.43 228.634 1302.11 196.413L1353.45 59.1201L1353.43 59.1435Z" fill="#FEFEFE"/>
<path d="M396.981 190.388C383.135 182.566 372.581 171.102 365.366 155.972C358.151 140.842 354.532 122.513 354.532 100.985C354.532 81.0913 358.128 63.5328 365.296 48.3092C372.464 33.0856 383.042 21.2477 396.981 12.7486C410.92 4.24953 427.662 0 447.205 0C466.748 0 483.046 4.27288 496.938 12.8186C510.831 21.3644 521.432 33.2491 528.693 48.5194C535.955 63.7897 539.597 81.2781 539.597 100.985C539.597 120.691 535.978 138.577 528.763 153.8C521.548 169.024 510.971 180.885 497.078 189.361C483.186 197.86 466.561 202.11 447.205 202.11C427.848 202.11 410.827 198.21 396.981 190.388ZM476.508 174.931C484.493 171.335 491.008 165.872 496.004 158.517C501.001 151.419 504.76 143.153 507.305 133.72C509.85 124.264 511.111 113.36 511.111 101.008C511.111 88.6564 509.85 77.8225 507.305 68.5062C504.76 59.1899 500.978 50.9477 496.004 43.7795C485.918 29.163 470.017 21.8314 448.302 21.8314C436.488 21.8314 426.284 23.8161 417.715 27.762C409.122 31.708 402.468 36.6814 397.752 42.6821C393.035 48.9397 389.393 57.1118 386.847 67.1519C384.302 77.192 383.042 88.4696 383.042 101.008C383.042 113.547 384.349 125.408 386.988 135.495C389.626 145.581 392.942 153.263 396.934 158.517C402.468 165.522 409.519 170.892 418.065 174.674C426.611 178.457 436.324 180.325 447.228 180.325C458.763 180.325 468.523 178.527 476.531 174.931H476.508Z" fill="#FEFEFE"/>
<path d="M670.609 64.6072C680.322 70.5145 687.934 78.9902 693.444 90.0343C698.931 101.078 701.686 114.037 701.686 128.934C701.686 143.831 699.025 156.276 693.724 167.366C688.401 178.457 680.953 187.003 671.379 193.05C661.806 199.098 650.786 202.11 638.34 202.11C618.54 202.11 603.55 194.895 593.37 180.442V254.575H568.293V59.1435H593.37V79.5739C598.46 71.5886 604.718 65.6112 612.166 61.6418C619.614 57.6959 628.067 55.7112 637.523 55.7112C649.875 55.7112 660.919 58.6532 670.632 64.5605L670.609 64.6072ZM664.538 168.651C670.866 159.801 674.018 146.562 674.018 128.934C674.018 117.306 672.804 107.64 670.399 99.911C667.994 92.1824 663.791 86.2051 657.79 81.9789C651.79 77.7527 643.524 75.6513 632.994 75.6513C619.638 75.6513 609.551 80.111 602.733 89.007C595.915 97.903 592.506 111.142 592.506 128.654C592.506 144.461 595.308 157.303 600.889 167.156C606.469 177.01 616.999 181.936 632.433 181.936C647.867 181.936 658.211 177.5 664.515 168.651H664.538Z" fill="#FEFEFE"/>
<path d="M1037.77 3.26855H1062.85V198.7H1037.77V3.26855Z" fill="#FEFEFE"/>
<path d="M832.488 157.84C830.34 164.868 826.814 170.332 821.841 174.231C815.303 179.368 806.08 181.936 794.172 181.936C781.097 181.936 771.29 178.224 764.799 170.775C758.308 163.327 754.876 151.886 754.502 136.429H860.39C860.484 135.168 860.53 133.207 860.53 130.568C860.53 121.672 859.48 113.08 857.401 104.814C855.3 96.5486 852.405 89.4037 848.669 83.403C843.042 74.507 835.36 67.6658 825.647 62.9025C815.933 58.1393 805.426 55.7344 794.172 55.7344C784.085 55.7344 774.862 57.5089 766.504 61.058C758.145 64.607 750.93 69.8139 744.836 76.7252C739.022 83.1695 734.632 90.828 731.69 99.6773C728.725 108.527 727.254 118.193 727.254 128.63C727.254 151.255 732.928 168.931 744.275 181.633C755.996 195.268 772.714 202.086 794.429 202.086C812.244 202.086 826.581 197.907 837.438 189.548C847.105 182.1 853.666 171.522 857.168 157.817H832.488V157.84ZM756.627 103.507C757.678 99.187 759.335 95.1243 761.6 91.3184C764.402 86.6019 768.675 82.8893 774.419 80.2042C780.139 77.5191 786.817 76.1882 794.452 76.1882C802.088 76.1882 808.555 77.4023 813.879 79.8073C819.202 82.2122 823.615 86.0648 827.164 91.3184C829.336 94.4938 831.11 98.4165 832.488 103.11C833.866 107.779 834.589 112.122 834.659 116.115H754.946C755.039 112.029 755.599 107.826 756.65 103.507H756.627Z" fill="#FEFEFE"/>
<path d="M1466.67 157.84C1464.52 164.868 1461 170.332 1456.03 174.231C1449.49 179.368 1440.26 181.936 1428.36 181.936C1415.28 181.936 1405.47 178.224 1398.98 170.775C1392.49 163.327 1389.06 151.886 1388.69 136.429H1494.57C1494.67 135.168 1494.71 133.207 1494.71 130.568C1494.71 121.672 1493.66 113.08 1491.59 104.814C1489.48 96.5486 1486.59 89.4037 1482.85 83.403C1477.23 74.507 1469.54 67.6658 1459.83 62.9025C1450.12 58.1393 1439.61 55.7344 1428.36 55.7344C1418.27 55.7344 1409.05 57.5089 1400.69 61.058C1392.33 64.607 1385.11 69.8139 1379.02 76.7252C1373.21 83.1695 1368.82 90.828 1365.87 99.6773C1362.91 108.527 1361.44 118.193 1361.44 128.63C1361.44 151.255 1367.11 168.931 1378.46 181.633C1390.18 195.268 1406.9 202.086 1428.61 202.086C1446.43 202.086 1460.76 197.907 1471.62 189.548C1481.29 182.1 1487.85 171.522 1491.35 157.817H1466.67V157.84ZM1390.81 103.507C1391.86 99.187 1393.52 95.1243 1395.78 91.3184C1398.59 86.6019 1402.86 82.8893 1408.6 80.2042C1414.32 77.5191 1421 76.1882 1428.64 76.1882C1436.27 76.1882 1442.74 77.4023 1448.06 79.8073C1453.39 82.2122 1457.8 86.0648 1461.35 91.3184C1463.52 94.4938 1465.29 98.4165 1466.67 103.11C1468.05 107.779 1468.77 112.122 1468.84 116.115H1389.13C1389.22 112.029 1389.78 107.826 1390.83 103.507H1390.81Z" fill="#FEFEFE"/>
<path d="M1546.13 81.4416H1606.63V55.7576H1580.59C1547.37 55.7576 1520.45 82.6791 1520.45 115.905V198.701H1546.08L1546.15 81.4416H1546.13Z" fill="#FEFEFE"/>
<path d="M911.338 80.7881H886.261V198.701H911.338V80.7881Z" fill="#FEFEFE"/>
<path d="M948.159 55.7344H911.338V80.8113H981.805V141.472V198.701H1006.88V114.434C1006.88 82.0021 980.591 55.7344 948.182 55.7344H948.159Z" fill="#FEFEFE"/>
<path d="M1222.93 179.298H1206.68V101.802C1206.68 86.6252 1202.22 75.1608 1193.32 67.3856C1184.43 59.6103 1171.19 55.7344 1153.68 55.7344C1144.78 55.7344 1136.68 56.6216 1129.42 58.3962C1122.16 60.1707 1116.02 62.7391 1111.02 66.1014C1105.58 69.7438 1101.4 74.6004 1098.48 80.6945C1095.89 86.0882 1094.37 92.3924 1093.86 99.5839H1118.61C1119.47 92.1356 1121.99 86.4851 1126.22 82.7492C1131.54 78.0327 1140.23 75.6511 1152.32 75.6511C1158.42 75.6511 1163.67 76.4684 1168.13 78.1028C1172.59 79.7372 1175.77 81.9554 1177.66 84.7806C1179.67 87.5125 1180.95 90.7113 1181.53 94.3771C1182.12 98.0662 1182.42 103.343 1182.42 110.254L1136.35 119.104C1127.36 120.832 1119.47 123.12 1112.7 125.992C1105.93 128.864 1100.28 133.207 1095.73 139.021C1091.17 144.834 1088.91 152.47 1088.91 161.903C1088.91 170.542 1091.1 177.897 1095.52 183.991C1099.93 190.085 1105.7 194.615 1112.82 197.627C1119.94 200.615 1127.6 202.11 1135.77 202.11C1159.21 202.11 1174.88 194.078 1182.79 177.99C1183.96 192.537 1192.3 199.798 1207.73 199.798C1213.45 199.798 1218.68 199.425 1223.4 198.701L1222.88 179.321L1222.93 179.298ZM1182.42 145.955C1182.42 156.672 1178.92 165.358 1171.94 171.989C1164.93 178.621 1154.22 181.936 1139.79 181.936C1132.62 181.936 1126.62 180.115 1121.81 176.496C1117 172.853 1114.59 167.903 1114.59 161.646C1114.59 156.556 1115.67 152.493 1117.79 149.458C1119.92 146.422 1122.79 144.087 1126.38 142.5C1129.98 140.912 1134.63 139.487 1140.35 138.203L1182.44 128.934V145.955H1182.42Z" fill="#FEFEFE"/>
</svg>
