<svg width="2074" height="338" viewBox="0 0 2074 338" fill="none" xmlns="http://www.w3.org/2000/svg">
<path d="M78.2891 0V77.6246H248.238C255.317 77.6246 261.07 83.3779 261.07 90.4566V260.405H338.694V114.946L223.719 0H78.2891Z" fill="#592FEA"/>
<path d="M78.2892 247.543V77.6248H0.664551V156.243C0.664551 256.61 82.0243 338 182.421 338H261.04V260.375H91.0911C84.0124 260.375 78.259 254.622 78.259 247.543H78.2892Z" fill="#592FEA"/>
<path d="M1746.69 76.2997H1712.86L1678.49 173.263C1674.52 184.498 1669.16 200.433 1662.35 221.127L1651.29 187.812L1646.57 173.263L1612.38 76.2997H1577.83L1647.77 253.96V295.679H1589.63V328.391H1603.88C1645.66 328.391 1679.61 294.956 1680.48 253.387L1746.72 76.2695L1746.69 76.2997Z" fill="#592FEA"/>
<path d="M512.8 245.616C494.938 235.525 481.323 220.735 472.015 201.216C462.707 181.696 458.038 158.051 458.038 130.278C458.038 104.614 462.677 81.9622 471.925 62.3226C481.172 42.683 494.817 27.4111 512.8 16.4467C530.783 5.48222 552.381 0 577.593 0C602.805 0 623.83 5.51234 641.753 16.537C659.676 27.5617 673.351 42.8939 682.719 62.5937C692.087 82.2935 696.786 104.855 696.786 130.278C696.786 155.701 692.117 178.775 682.809 198.414C673.502 218.054 659.856 233.356 641.934 244.29C624.011 255.255 602.564 260.737 577.593 260.737C552.622 260.737 530.663 255.706 512.8 245.616V245.616ZM615.396 225.675C625.698 221.036 634.102 213.987 640.548 204.499C646.994 195.342 651.844 184.679 655.127 172.509C658.41 160.31 660.037 146.243 660.037 130.308C660.037 114.374 658.41 100.397 655.127 88.3782C651.844 76.3595 646.964 65.7264 640.548 56.4789C627.535 37.6225 607.022 28.1642 579.009 28.1642C563.767 28.1642 550.603 30.7245 539.549 35.8152C528.464 40.9058 519.879 47.3218 513.794 55.0632C507.71 63.1359 503.011 73.6786 499.727 86.6311C496.444 99.5836 494.817 114.133 494.817 130.308C494.817 146.484 496.504 161.786 499.908 174.798C503.312 187.811 507.589 197.721 512.74 204.499C519.879 213.535 528.976 220.464 540.001 225.343C551.025 230.223 563.556 232.633 577.623 232.633C592.503 232.633 605.094 230.313 615.426 225.675H615.396Z" fill="#592FEA"/>
<path d="M865.801 83.3481C878.332 90.969 888.152 101.903 895.261 116.151C902.339 130.399 905.894 147.117 905.894 166.334C905.894 185.552 902.46 201.607 895.622 215.915C888.754 230.223 879.145 241.248 866.795 249.05C854.445 256.851 840.228 260.737 824.172 260.737C798.629 260.737 779.291 251.429 766.157 232.784V328.421H733.806V76.2995H766.157V102.656C772.724 92.3546 780.797 84.6433 790.406 79.5226C800.014 74.432 810.919 71.8716 823.118 71.8716C839.053 71.8716 853.3 75.667 865.831 83.2879L865.801 83.3481ZM857.969 217.572C866.132 206.156 870.199 189.077 870.199 166.334C870.199 151.334 868.633 138.863 865.53 128.893C862.427 118.922 857.006 111.211 849.264 105.759C841.523 100.307 830.86 97.5958 817.274 97.5958C800.045 97.5958 787.032 103.349 778.236 114.826C769.441 126.302 765.043 143.381 765.043 165.973C765.043 186.366 768.657 202.933 775.857 215.644C783.056 228.356 796.641 234.712 816.551 234.712C836.462 234.712 849.806 228.988 857.939 217.572H857.969Z" fill="#592FEA"/>
<path d="M1339.47 4.2168H1371.82V256.339H1339.47V4.2168Z" fill="#592FEA"/>
<path d="M1074.64 203.625C1071.87 212.692 1067.32 219.741 1060.9 224.771C1052.47 231.398 1040.57 234.711 1025.21 234.711C1008.34 234.711 995.688 229.922 987.314 220.313C978.94 210.704 974.512 195.944 974.03 176.004H1110.63C1110.75 174.377 1110.81 171.847 1110.81 168.443C1110.81 156.966 1109.46 145.881 1106.78 135.218C1104.07 124.555 1100.33 115.338 1095.51 107.596C1088.25 96.1198 1078.34 87.294 1065.81 81.1491C1053.28 75.0042 1039.73 71.9016 1025.21 71.9016C1012.19 71.9016 1000.3 74.1909 989.513 78.7694C978.729 83.348 969.421 90.0652 961.559 98.9814C954.059 107.295 948.396 117.175 944.6 128.591C940.775 140.008 938.877 152.478 938.877 165.943C938.877 195.131 946.197 217.933 960.836 234.32C975.958 251.911 997.525 260.707 1025.54 260.707C1048.52 260.707 1067.02 255.315 1081.02 244.531C1093.49 234.922 1101.96 221.277 1106.48 203.595H1074.64V203.625ZM976.771 133.531C978.126 127.959 980.265 122.718 983.187 117.808C986.802 111.723 992.314 106.934 999.724 103.47C1007.1 100.006 1015.72 98.2886 1025.57 98.2886C1035.42 98.2886 1043.76 99.8549 1050.63 102.957C1057.5 106.06 1063.19 111.03 1067.77 117.808C1070.57 121.904 1072.86 126.965 1074.64 133.019C1076.41 139.044 1077.35 144.646 1077.44 149.797H974.602C974.723 144.526 975.446 139.104 976.801 133.531H976.771Z" fill="#592FEA"/>
<path d="M1892.78 203.625C1890.01 212.692 1885.46 219.741 1879.05 224.771C1870.61 231.398 1858.72 234.711 1843.35 234.711C1826.48 234.711 1813.83 229.922 1805.46 220.313C1797.09 210.704 1792.66 195.944 1792.18 176.004H1928.78C1928.9 174.377 1928.96 171.847 1928.96 168.443C1928.96 156.966 1927.6 145.881 1924.92 135.218C1922.21 124.555 1918.48 115.338 1913.66 107.596C1906.4 96.1198 1896.49 87.294 1883.96 81.1491C1871.43 75.0042 1857.87 71.9016 1843.35 71.9016C1830.34 71.9016 1818.44 74.1909 1807.66 78.7694C1796.87 83.348 1787.57 90.0652 1779.71 98.9814C1772.2 107.295 1766.54 117.175 1762.75 128.591C1758.92 140.008 1757.02 152.478 1757.02 165.943C1757.02 195.131 1764.34 217.933 1778.98 234.32C1794.1 251.911 1815.67 260.707 1843.68 260.707C1866.67 260.707 1885.16 255.315 1899.17 244.531C1911.64 234.922 1920.1 221.277 1924.62 203.595H1892.78V203.625ZM1794.92 133.531C1796.27 127.959 1798.41 122.718 1801.33 117.808C1804.95 111.723 1810.46 106.934 1817.87 103.47C1825.25 100.006 1833.86 98.2886 1843.71 98.2886C1853.56 98.2886 1861.91 99.8549 1868.78 102.957C1875.64 106.06 1881.34 111.03 1885.92 117.808C1888.72 121.904 1891.01 126.965 1892.78 133.019C1894.56 139.044 1895.49 144.646 1895.58 149.797H1792.75C1792.87 144.526 1793.59 139.104 1794.95 133.531H1794.92Z" fill="#592FEA"/>
<path d="M1995.29 105.066H2073.34V71.9314H2039.75C1996.89 71.9314 1962.15 106.662 1962.15 149.526V256.339H1995.23L1995.32 105.066H1995.29Z" fill="#592FEA"/>
<path d="M1176.36 104.223H1144.01V256.339H1176.36V104.223Z" fill="#592FEA"/>
<path d="M1223.86 71.9016H1176.36V104.253H1267.27V182.51V256.339H1299.62V147.629C1299.62 105.789 1265.7 71.9016 1223.89 71.9016H1223.86Z" fill="#592FEA"/>
<path d="M1578.34 231.308H1557.37V131.332C1557.37 111.753 1551.62 96.9632 1540.14 86.9325C1528.67 76.9019 1511.59 71.9016 1489 71.9016C1477.52 71.9016 1467.07 73.0462 1457.7 75.3355C1448.33 77.6248 1440.41 80.9382 1433.96 85.2758C1426.95 89.9749 1421.55 96.2403 1417.79 104.102C1414.44 111.06 1412.49 119.193 1411.82 128.471H1443.75C1444.87 118.862 1448.12 111.572 1453.57 106.753C1460.44 100.668 1471.65 97.5958 1487.25 97.5958C1495.11 97.5958 1501.89 98.65 1507.64 100.759C1513.4 102.867 1517.49 105.729 1519.93 109.373C1522.52 112.898 1524.18 117.024 1524.93 121.754C1525.69 126.513 1526.08 133.321 1526.08 142.237L1466.65 153.653C1455.05 155.882 1444.87 158.834 1436.13 162.539C1427.4 166.244 1420.11 171.847 1414.23 179.347C1408.36 186.847 1405.44 196.697 1405.44 208.867C1405.44 220.012 1408.27 229.5 1413.96 237.362C1419.66 245.224 1427.1 251.068 1436.28 254.954C1445.47 258.809 1455.35 260.737 1465.89 260.737C1496.14 260.737 1516.35 250.375 1526.56 229.621C1528.07 248.387 1538.82 257.755 1558.73 257.755C1566.11 257.755 1572.86 257.273 1578.94 256.339L1578.28 231.338L1578.34 231.308ZM1526.08 188.293C1526.08 202.119 1521.56 213.325 1512.55 221.879C1503.52 230.434 1489.69 234.711 1471.07 234.711C1461.83 234.711 1454.09 232.362 1447.88 227.693C1441.68 222.994 1438.57 216.608 1438.57 208.535C1438.57 201.969 1439.96 196.728 1442.7 192.812C1445.44 188.896 1449.15 185.884 1453.78 183.835C1458.42 181.787 1464.42 179.95 1471.8 178.293L1526.11 166.334V188.293H1526.08Z" fill="#592FEA"/>
</svg>
