<svg width="180" height="180" viewBox="0 0 180 180" fill="none" xmlns="http://www.w3.org/2000/svg">
<rect width="180" height="180" fill="#17171A"/>
<path d="M56.6667 48.3333C56.6667 52.9357 52.9357 56.6667 48.3333 56.6667C43.731 56.6667 40 52.9357 40 48.3333C40 43.731 43.731 40 48.3333 40C52.9357 40 56.6667 43.731 56.6667 48.3333Z" fill="white"/>
<path d="M90 48.3333C90 52.9357 86.269 56.6667 81.6666 56.6667C77.0642 56.6667 73.3333 52.9357 73.3333 48.3333C73.3333 43.731 77.0642 40 81.6666 40C86.269 40 90 43.731 90 48.3333Z" fill="white"/>
<path d="M123.333 48.3333C123.333 52.9357 119.602 56.6667 115 56.6667C110.398 56.6667 106.667 52.9357 106.667 48.3333C106.667 43.731 110.398 40 115 40C119.602 40 123.333 43.731 123.333 48.3333Z" fill="white"/>
<path d="M56.6667 115C56.6667 119.602 52.9357 123.333 48.3333 123.333C43.731 123.333 40 119.602 40 115C40 110.398 43.731 106.667 48.3333 106.667C52.9357 106.667 56.6667 110.398 56.6667 115Z" fill="white"/>
<path d="M90 115C90 119.602 86.269 123.333 81.6666 123.333C77.0642 123.333 73.3333 119.602 73.3333 115C73.3333 110.398 77.0642 106.667 81.6666 106.667C86.269 106.667 90 110.398 90 115Z" fill="white"/>
<path d="M123.333 115C123.333 119.602 119.602 123.333 115 123.333C110.398 123.333 106.667 119.602 106.667 115C106.667 110.398 110.398 106.667 115 106.667C119.602 106.667 123.333 110.398 123.333 115Z" fill="white"/>
<path d="M73.3334 65C73.3334 69.6023 69.6025 73.3333 65.0001 73.3333C60.3977 73.3333 56.6668 69.6023 56.6668 65C56.6668 60.3976 60.3977 56.6666 65.0001 56.6666C69.6025 56.6666 73.3334 60.3976 73.3334 65Z" fill="white"/>
<path d="M106.667 65C106.667 69.6023 102.936 73.3333 98.3334 73.3333C93.731 73.3333 90 69.6023 90 65C90 60.3976 93.731 56.6666 98.3334 56.6666C102.936 56.6666 106.667 60.3976 106.667 65Z" fill="white"/>
<path d="M140 65C140 69.6023 136.269 73.3333 131.667 73.3333C127.064 73.3333 123.333 69.6023 123.333 65C123.333 60.3976 127.064 56.6666 131.667 56.6666C136.269 56.6666 140 60.3976 140 65Z" fill="white"/>
<path d="M73.3334 131.667C73.3334 136.269 69.6025 140 65.0001 140C60.3977 140 56.6668 136.269 56.6668 131.667C56.6668 127.064 60.3977 123.333 65.0001 123.333C69.6025 123.333 73.3334 127.064 73.3334 131.667Z" fill="white"/>
<path d="M106.667 131.667C106.667 136.269 102.936 140 98.3334 140C93.731 140 90 136.269 90 131.667C90 127.064 93.731 123.333 98.3334 123.333C102.936 123.333 106.667 127.064 106.667 131.667Z" fill="white"/>
<path d="M140 131.667C140 136.269 136.269 140 131.667 140C127.064 140 123.333 136.269 123.333 131.667C123.333 127.064 127.064 123.333 131.667 123.333C136.269 123.333 140 127.064 140 131.667Z" fill="white"/>
<path d="M56.6667 81.6667C56.6667 86.2691 52.9357 90 48.3333 90C43.731 90 40 86.2691 40 81.6667C40 77.0643 43.731 73.3334 48.3333 73.3334C52.9357 73.3334 56.6667 77.0643 56.6667 81.6667Z" fill="white"/>
<path d="M90 81.6667C90 86.2691 86.269 90 81.6666 90C77.0642 90 73.3333 86.2691 73.3333 81.6667C73.3333 77.0643 77.0642 73.3334 81.6666 73.3334C86.269 73.3334 90 77.0643 90 81.6667Z" fill="white"/>
<path d="M123.333 81.6667C123.333 86.2691 119.602 90 115 90C110.398 90 106.667 86.2691 106.667 81.6667C106.667 77.0643 110.398 73.3334 115 73.3334C119.602 73.3334 123.333 77.0643 123.333 81.6667Z" fill="white"/>
<path d="M73.3334 98.3333C73.3334 102.936 69.6025 106.667 65.0001 106.667C60.3977 106.667 56.6668 102.936 56.6668 98.3333C56.6668 93.7309 60.3977 90 65.0001 90C69.6025 90 73.3334 93.7309 73.3334 98.3333Z" fill="white"/>
<path d="M106.667 98.3333C106.667 102.936 102.936 106.667 98.3334 106.667C93.731 106.667 90 102.936 90 98.3333C90 93.7309 93.731 90 98.3334 90C102.936 90 106.667 93.7309 106.667 98.3333Z" fill="white"/>
<path d="M140 98.3333C140 102.936 136.269 106.667 131.667 106.667C127.064 106.667 123.333 102.936 123.333 98.3333C123.333 93.7309 127.064 90 131.667 90C136.269 90 140 93.7309 140 98.3333Z" fill="white"/>
</svg>
