<svg width="542" height="190" viewBox="0 0 542 190" fill="none" xmlns="http://www.w3.org/2000/svg">
<path d="M16.6667 53.3333C16.6667 57.9357 12.9357 61.6667 8.33334 61.6667C3.73096 61.6667 0 57.9357 0 53.3333C0 48.731 3.73096 45 8.33334 45C12.9357 45 16.6667 48.731 16.6667 53.3333Z" fill="#17171A"/>
<path d="M50 53.3333C50 57.9357 46.269 61.6667 41.6666 61.6667C37.0642 61.6667 33.3333 57.9357 33.3333 53.3333C33.3333 48.731 37.0642 45 41.6666 45C46.269 45 50 48.731 50 53.3333Z" fill="#17171A"/>
<path d="M83.3335 53.3333C83.3335 57.9357 79.6025 61.6667 75.0001 61.6667C70.3978 61.6667 66.6668 57.9357 66.6668 53.3333C66.6668 48.731 70.3978 45 75.0001 45C79.6025 45 83.3335 48.731 83.3335 53.3333Z" fill="#17171A"/>
<path d="M16.6667 120C16.6667 124.602 12.9357 128.333 8.33334 128.333C3.73096 128.333 0 124.602 0 120C0 115.398 3.73096 111.667 8.33334 111.667C12.9357 111.667 16.6667 115.398 16.6667 120Z" fill="#17171A"/>
<path d="M50 120C50 124.602 46.269 128.333 41.6666 128.333C37.0642 128.333 33.3333 124.602 33.3333 120C33.3333 115.398 37.0642 111.667 41.6666 111.667C46.269 111.667 50 115.398 50 120Z" fill="#17171A"/>
<path d="M83.3335 120C83.3335 124.602 79.6025 128.333 75.0001 128.333C70.3978 128.333 66.6668 124.602 66.6668 120C66.6668 115.398 70.3978 111.667 75.0001 111.667C79.6025 111.667 83.3335 115.398 83.3335 120Z" fill="#17171A"/>
<path d="M33.3334 70C33.3334 74.6023 29.6025 78.3333 25.0001 78.3333C20.3977 78.3333 16.6668 74.6023 16.6668 70C16.6668 65.3976 20.3977 61.6666 25.0001 61.6666C29.6025 61.6666 33.3334 65.3976 33.3334 70Z" fill="#17171A"/>
<path d="M66.6667 70C66.6667 74.6023 62.9358 78.3333 58.3334 78.3333C53.731 78.3333 50 74.6023 50 70C50 65.3976 53.731 61.6666 58.3334 61.6666C62.9358 61.6666 66.6667 65.3976 66.6667 70Z" fill="#17171A"/>
<path d="M100 70C100 74.6023 96.269 78.3333 91.6667 78.3333C87.0643 78.3333 83.3333 74.6023 83.3333 70C83.3333 65.3976 87.0643 61.6666 91.6667 61.6666C96.269 61.6666 100 65.3976 100 70Z" fill="#17171A"/>
<path d="M33.3334 136.667C33.3334 141.269 29.6025 145 25.0001 145C20.3977 145 16.6668 141.269 16.6668 136.667C16.6668 132.064 20.3977 128.333 25.0001 128.333C29.6025 128.333 33.3334 132.064 33.3334 136.667Z" fill="#17171A"/>
<path d="M66.6667 136.667C66.6667 141.269 62.9358 145 58.3334 145C53.731 145 50 141.269 50 136.667C50 132.064 53.731 128.333 58.3334 128.333C62.9358 128.333 66.6667 132.064 66.6667 136.667Z" fill="#17171A"/>
<path d="M100 136.667C100 141.269 96.269 145 91.6667 145C87.0643 145 83.3333 141.269 83.3333 136.667C83.3333 132.064 87.0643 128.333 91.6667 128.333C96.269 128.333 100 132.064 100 136.667Z" fill="#17171A"/>
<path d="M16.6667 86.6667C16.6667 91.2691 12.9357 95 8.33334 95C3.73096 95 0 91.2691 0 86.6667C0 82.0643 3.73096 78.3334 8.33334 78.3334C12.9357 78.3334 16.6667 82.0643 16.6667 86.6667Z" fill="#17171A"/>
<path d="M50 86.6667C50 91.2691 46.269 95 41.6666 95C37.0642 95 33.3333 91.2691 33.3333 86.6667C33.3333 82.0643 37.0642 78.3334 41.6666 78.3334C46.269 78.3334 50 82.0643 50 86.6667Z" fill="#17171A"/>
<path d="M83.3335 86.6667C83.3335 91.2691 79.6025 95 75.0001 95C70.3978 95 66.6668 91.2691 66.6668 86.6667C66.6668 82.0643 70.3978 78.3334 75.0001 78.3334C79.6025 78.3334 83.3335 82.0643 83.3335 86.6667Z" fill="#17171A"/>
<path d="M33.3334 103.333C33.3334 107.936 29.6025 111.667 25.0001 111.667C20.3977 111.667 16.6668 107.936 16.6668 103.333C16.6668 98.7309 20.3977 95 25.0001 95C29.6025 95 33.3334 98.7309 33.3334 103.333Z" fill="#17171A"/>
<path d="M66.6667 103.333C66.6667 107.936 62.9358 111.667 58.3334 111.667C53.731 111.667 50 107.936 50 103.333C50 98.7309 53.731 95 58.3334 95C62.9358 95 66.6667 98.7309 66.6667 103.333Z" fill="#17171A"/>
<path d="M100 103.333C100 107.936 96.269 111.667 91.6667 111.667C87.0643 111.667 83.3333 107.936 83.3333 103.333C83.3333 98.7309 87.0643 95 91.6667 95C96.269 95 100 98.7309 100 103.333Z" fill="#17171A"/>
<path d="M221.424 54.4V113.024C221.424 123.264 218.693 131.285 213.232 137.088C207.856 142.891 199.835 145.792 189.168 145.792C178.501 145.792 170.437 142.891 164.976 137.088C159.6 131.285 156.912 123.264 156.912 113.024V54.4H173.808V113.024C173.808 118.315 175.045 122.453 177.52 125.44C179.995 128.427 183.877 129.92 189.168 129.92C194.459 129.92 198.341 128.427 200.816 125.44C203.291 122.453 204.528 118.315 204.528 113.024V54.4H221.424ZM254.487 144H238.359V80.512H254.487V89.984H256.791C258.242 86.4 260.588 83.6267 263.831 81.664C267.074 79.7013 270.871 78.72 275.223 78.72C278.295 78.72 281.154 79.232 283.799 80.256C286.53 81.1947 288.919 82.688 290.967 84.736C293.015 86.784 294.594 89.3867 295.703 92.544C296.898 95.7013 297.495 99.456 297.495 103.808V144H281.367V107.904C281.367 103.381 280.258 99.84 278.039 97.28C275.906 94.6347 272.791 93.312 268.695 93.312C263.916 93.312 260.332 94.9333 257.943 98.176C255.639 101.333 254.487 105.6 254.487 110.976V144ZM330.174 144H314.046V54.4H330.174V89.728H332.478C334.185 86.2293 336.659 83.5413 339.902 81.664C343.145 79.7013 347.283 78.72 352.318 78.72C356.073 78.72 359.614 79.4453 362.942 80.896C366.355 82.3467 369.299 84.48 371.774 87.296C374.334 90.0267 376.339 93.3973 377.79 97.408C379.326 101.419 380.094 105.984 380.094 111.104V113.408C380.094 118.613 379.369 123.221 377.918 127.232C376.467 131.243 374.505 134.656 372.03 137.472C369.555 140.203 366.611 142.293 363.198 143.744C359.87 145.109 356.243 145.792 352.318 145.792C349.417 145.792 346.899 145.493 344.766 144.896C342.633 144.299 340.755 143.488 339.134 142.464C337.598 141.44 336.275 140.288 335.166 139.008C334.142 137.643 333.246 136.235 332.478 134.784H330.174V144ZM347.07 130.432C352.105 130.432 356.158 128.896 359.23 125.824C362.387 122.667 363.966 118.4 363.966 113.024V111.488C363.966 106.112 362.387 101.888 359.23 98.816C356.158 95.6587 352.105 94.08 347.07 94.08C342.035 94.08 337.939 95.7013 334.782 98.944C331.71 102.101 330.174 106.283 330.174 111.488V113.024C330.174 118.229 331.71 122.453 334.782 125.696C337.939 128.853 342.035 130.432 347.07 130.432ZM457.317 113.024C457.317 118.315 456.421 123.008 454.629 127.104C452.837 131.115 450.405 134.528 447.333 137.344C444.261 140.075 440.72 142.165 436.709 143.616C432.784 145.067 428.645 145.792 424.293 145.792C419.941 145.792 415.76 145.067 411.749 143.616C407.824 142.165 404.325 140.075 401.253 137.344C398.181 134.528 395.749 131.115 393.957 127.104C392.165 123.008 391.269 118.315 391.269 113.024V111.488C391.269 106.283 392.165 101.675 393.957 97.664C395.749 93.568 398.181 90.112 401.253 87.296C404.325 84.48 407.824 82.3467 411.749 80.896C415.76 79.4453 419.941 78.72 424.293 78.72C428.645 78.72 432.784 79.4453 436.709 80.896C440.72 82.3467 444.261 84.48 447.333 87.296C450.405 90.112 452.837 93.568 454.629 97.664C456.421 101.675 457.317 106.283 457.317 111.488V113.024ZM424.293 130.432C426.597 130.432 428.773 130.048 430.821 129.28C432.869 128.512 434.661 127.403 436.197 125.952C437.733 124.501 438.928 122.752 439.781 120.704C440.72 118.571 441.189 116.181 441.189 113.536V110.976C441.189 108.331 440.72 105.984 439.781 103.936C438.928 101.803 437.733 100.011 436.197 98.56C434.661 97.1093 432.869 96 430.821 95.232C428.773 94.464 426.597 94.08 424.293 94.08C421.989 94.08 419.813 94.464 417.765 95.232C415.717 96 413.925 97.1093 412.389 98.56C410.853 100.011 409.616 101.803 408.677 103.936C407.824 105.984 407.397 108.331 407.397 110.976V113.536C407.397 116.181 407.824 118.571 408.677 120.704C409.616 122.752 410.853 124.501 412.389 125.952C413.925 127.403 415.717 128.512 417.765 129.28C419.813 130.048 421.989 130.432 424.293 130.432ZM515.596 80.512H533.388L518.028 110.336V112.64L534.284 144H515.724L503.82 119.168H501.516L489.612 144H471.052L487.308 112.64V110.336L471.82 80.512H489.74L501.516 103.808H503.82L515.596 80.512Z" fill="#17171A"/>
</svg>
